<svg width="668" height="650" viewBox="0 0 668 650" fill="none" xmlns="http://www.w3.org/2000/svg">
<rect width="668" height="650" fill="white"/>
<path d="M450.201 282.692V155.769C450.201 127.717 437.96 100.815 416.17 80.9791C394.381 61.1435 364.828 50 334.014 50C303.199 50 273.646 61.1435 251.857 80.9791C230.068 100.815 217.826 127.717 217.826 155.769V282.692M569.672 226.479L608.804 564.941C610.973 583.697 594.862 600 574.134 600H93.8935C89.0046 600.005 84.1693 599.073 79.7016 597.266C75.2339 595.459 71.2339 592.816 67.9612 589.51C64.6886 586.203 62.2167 582.307 60.7059 578.074C59.1952 573.842 58.6795 569.367 59.1923 564.941L98.3551 226.479C99.2585 218.682 103.301 211.466 109.703 206.221C116.105 200.977 124.413 198.075 133.025 198.077H535.002C552.848 198.077 567.813 210.346 569.672 226.479ZM229.445 282.692C229.445 285.497 228.221 288.188 226.042 290.171C223.863 292.155 220.908 293.269 217.826 293.269C214.745 293.269 211.79 292.155 209.611 290.171C207.432 288.188 206.208 285.497 206.208 282.692C206.208 279.887 207.432 277.197 209.611 275.213C211.79 273.23 214.745 272.115 217.826 272.115C220.908 272.115 223.863 273.23 226.042 275.213C228.221 277.197 229.445 279.887 229.445 282.692ZM461.82 282.692C461.82 285.497 460.595 288.188 458.417 290.171C456.238 292.155 453.282 293.269 450.201 293.269C447.119 293.269 444.164 292.155 441.985 290.171C439.806 288.188 438.582 285.497 438.582 282.692C438.582 279.887 439.806 277.197 441.985 275.213C444.164 273.23 447.119 272.115 450.201 272.115C453.282 272.115 456.238 273.23 458.417 275.213C460.595 277.197 461.82 279.887 461.82 282.692Z" stroke="black" stroke-width="3" stroke-linecap="round" stroke-linejoin="round"/>
<rect x="14" y="424" width="219" height="210" fill="white"/>
<path d="M124 479V579M174 529H74" stroke="black" stroke-width="1.5" stroke-linecap="round" stroke-linejoin="round"/>
</svg>
